<?xml version="1.0" encoding="UTF-8"?>
<svg version="1.1" xmlns="http://www.w3.org/2000/svg" width="16" height="16">
<path d="M0 0 C4.875 2.625 4.875 2.625 6 6 C8.64 6 11.28 6 14 6 C14 7.98 14 9.96 14 12 C9.02495953 15.24900602 6.11774896 16.49940808 0 16 C-2.75850984 11.13204146 -1.97222585 6.30305008 -1 1 C-0.67 0.67 -0.34 0.34 0 0 Z M0 3 C0.66 4.98 1.32 6.96 2 9 C2.66 8.67 3.32 8.34 4 8 C3.73323796 6.01508358 3.73323796 6.01508358 3 4 C2.01 3.67 1.02 3.34 0 3 Z M7 7 C5.28288757 9.44496043 5.28288757 9.44496043 4 12 C4.99 12.495 4.99 12.495 6 13 C6 12.01 6 11.02 6 10 C7.98 9.67 9.96 9.34 12 9 C11.34 8.34 10.68 7.68 10 7 C9.01 7 8.02 7 7 7 Z M0 9 C0.66 9.66 1.32 10.32 2 11 C2 10.34 2 9.68 2 9 C1.34 9 0.68 9 0 9 Z M9 11 C9.33 11.66 9.66 12.32 10 13 C10.33 12.34 10.66 11.68 11 11 C10.34 11 9.68 11 9 11 Z " fill="#003768" transform="translate(2,0)"/>
<path d="M0 0 C0.33 1.32 0.66 2.64 1 4 C2.32 3.67 3.64 3.34 5 3 C5.33 3.66 5.66 4.32 6 5 C7.32 4.67 8.64 4.34 10 4 C7.85545335 6.35900131 6.01441484 7.91146131 3 9 C0.66796188 9.0777346 -1.66839059 9.08967728 -4 9 C-4.66 7.68 -5.32 6.36 -6 5 C-5.38125 4.9175 -4.7625 4.835 -4.125 4.75 C-1.81562433 4.18741541 -1.81562433 4.18741541 -0.75 1.9375 C-0.5025 1.298125 -0.255 0.65875 0 0 Z " fill="#3A7256" transform="translate(6,7)"/>
<path d="M0 0 C0.70125 0.144375 1.4025 0.28875 2.125 0.4375 C5.07556141 1.01478375 8.03270151 1.51695141 11 2 C9 4 9 4 5.375 4.125 C4.26125 4.08375 3.1475 4.0425 2 4 C1.34 2.68 0.68 1.36 0 0 Z " fill="#7FB942" transform="translate(0,12)"/>
<path d="" fill="#003768" transform="translate(0,0)"/>
</svg>